<?xml version="1.0" encoding="UTF-8"?>
<svg viewBox="0 0 64 64" xmlns="http://www.w3.org/2000/svg" xmlns:xlink="http://www.w3.org/1999/xlink">
 <defs>
  <linearGradient id="b">
   <stop stop-color="#a00" offset="0"/>
   <stop stop-color="#c8b7b7" stop-opacity="0" offset="1"/>
  </linearGradient>
  <linearGradient id="c" x1="-27.931" x2="-29.462" y1="-9.5528" y2="-100.77" gradientUnits="userSpaceOnUse" xlink:href="#b"/>
  <linearGradient id="a" x1="27.931" x2="29.462" y1="9.5528" y2="100.77" gradientUnits="userSpaceOnUse" xlink:href="#b"/>
 </defs>
 <path d="m2.3824 19h10.071v4.1728h-10.071z" fill="#a00" opacity=".81667"/>
 <path d="m13.304 19h10.071v4.1728h-10.071z" fill="#a00" opacity=".81667"/>
 <path d="m24.226 19h10.071v4.1728h-10.071z" fill="#a00" opacity=".81667"/>
 <path d="m35.148 19h10.071v4.1728h-10.071z" fill="#a00" opacity=".81667"/>
 <path d="m46.07 19h10.071v4.1728h-10.071z" fill="#a00" opacity=".81667"/>
 <path d="m2.3824 19h10.071v4.1728h-10.071z" fill="url(#a)" opacity=".81667"/>
 <path d="m13.304 19h10.071v4.1728h-10.071z" fill="#a00" opacity=".81667"/>
 <path d="m24.226 19h10.071v4.1728h-10.071z" fill="#a00" opacity=".81667"/>
 <path d="m35.148 19h10.071v4.1728h-10.071z" fill="#a00" opacity=".81667"/>
 <path d="m46.07 19h10.071v4.1728h-10.071z" fill="#a00" opacity=".81667"/>
 <path d="m8.6235 23.748h10.071v4.1728h-10.071z" fill="#a00" opacity=".81667"/>
 <path d="m19.546 23.748h10.071v4.1728h-10.071z" fill="#a00" opacity=".81667"/>
 <path d="m30.468 23.748h10.071v4.1728h-10.071z" fill="#a00" opacity=".81667"/>
 <path d="m41.39 23.748h10.071v4.1728h-10.071z" fill="#a00" opacity=".81667"/>
 <path d="m52.311 23.748h10.071v4.1728h-10.071z" fill="#a00" opacity=".81667"/>
 <path d="m8.6235 23.748h10.071v4.1728h-10.071z" fill="#a00" opacity=".81667"/>
 <path d="m19.546 23.748h10.071v4.1728h-10.071z" fill="#a00" opacity=".81667"/>
 <path d="m30.468 23.748h10.071v4.1728h-10.071z" fill="#a00" opacity=".81667"/>
 <path d="m41.39 23.748h10.071v4.1728h-10.071z" fill="url(#a)" opacity=".81667"/>
 <path d="m52.311 23.748h10.071v4.1728h-10.071z" fill="#a00" opacity=".81667"/>
 <path transform="scale(-1)" d="m-56.141-32.67h10.071v4.1728h-10.071z" fill="#a00" opacity=".81667"/>
 <path transform="scale(-1)" d="m-45.219-32.67h10.071v4.1728h-10.071z" fill="#a00" opacity=".81667"/>
 <path transform="scale(-1)" d="m-34.297-32.67h10.071v4.1728h-10.071z" fill="#a00" opacity=".81667"/>
 <path transform="scale(-1)" d="m-23.375-32.67h10.071v4.1728h-10.071z" fill="#a00" opacity=".81667"/>
 <path transform="scale(-1)" d="m-12.453-32.67h10.071v4.1728h-10.071z" fill="#a00" opacity=".81667"/>
 <path transform="scale(-1)" d="m-56.141-32.67h10.071v4.1728h-10.071z" fill="#a00" opacity=".81667"/>
 <path transform="scale(-1)" d="m-45.219-32.67h10.071v4.1728h-10.071z" fill="#a00" opacity=".81667"/>
 <path transform="scale(-1)" d="m-34.297-32.67h10.071v4.1728h-10.071z" fill="#a00" opacity=".81667"/>
 <path transform="scale(-1)" d="m-23.375-32.67h10.071v4.1728h-10.071z" fill="#a00" opacity=".81667"/>
 <path transform="scale(-1)" d="m-12.453-32.67h10.071v4.1728h-10.071z" fill="#a00" opacity=".81667"/>
 <path transform="scale(-1)" d="m-60.822-37.418h10.071v4.1728h-10.071z" fill="#a00" opacity=".81667"/>
 <path transform="scale(-1)" d="m-49.9-37.418h10.071v4.1728h-10.071z" fill="#a00" opacity=".81667"/>
 <path transform="scale(-1)" d="m-38.978-37.418h10.071v4.1728h-10.071z" fill="#a00" opacity=".81667"/>
 <path transform="scale(-1)" d="m-28.056-37.418h10.071v4.1728h-10.071z" fill="#a00" opacity=".81667"/>
 <path transform="scale(-1)" d="m-17.134-37.418h10.071v4.1728h-10.071z" fill="#a00" opacity=".81667"/>
 <path transform="scale(-1)" d="m-60.822-37.418h10.071v4.1728h-10.071z" fill="#a00" opacity=".81667"/>
 <path transform="scale(-1)" d="m-49.9-37.418h10.071v4.1728h-10.071z" fill="#a00" opacity=".81667"/>
 <path transform="scale(-1)" d="m-38.978-37.418h10.071v4.1728h-10.071z" fill="#a00" opacity=".81667"/>
 <path transform="scale(-1)" d="m-28.056-37.418h10.071v4.1728h-10.071z" fill="#a00" opacity=".81667"/>
 <path transform="scale(-1)" d="m-17.134-37.418h10.071v4.1728h-10.071z" fill="#a00" opacity=".81667"/>
 <path transform="scale(-1)" d="m-61.267-57h10.071v4.1728h-10.071z" fill="#a00" opacity=".81667"/>
 <path transform="scale(-1)" d="m-50.345-57h10.071v4.1728h-10.071z" fill="#a00" opacity=".81667"/>
 <path transform="scale(-1)" d="m-39.423-57h10.071v4.1728h-10.071z" fill="#a00" opacity=".81667"/>
 <path transform="scale(-1)" d="m-28.501-57h10.071v4.1728h-10.071z" fill="#a00" opacity=".81667"/>
 <path transform="scale(-1)" d="m-17.579-57h10.071v4.1728h-10.071z" fill="#a00" opacity=".81667"/>
 <path transform="scale(-1)" d="m-61.267-57h10.071v4.1728h-10.071z" fill="url(#c)" opacity=".81667"/>
 <path transform="scale(-1)" d="m-50.345-57h10.071v4.1728h-10.071z" fill="#a00" opacity=".81667"/>
 <path transform="scale(-1)" d="m-39.423-57h10.071v4.1728h-10.071z" fill="#a00" opacity=".81667"/>
 <path transform="scale(-1)" d="m-28.501-57h10.071v4.1728h-10.071z" fill="#a00" opacity=".81667"/>
 <path transform="scale(-1)" d="m-17.579-57h10.071v4.1728h-10.071z" fill="#a00" opacity=".81667"/>
 <path transform="scale(-1)" d="m-55.026-52.252h10.071v4.1728h-10.071z" fill="#a00" opacity=".81667"/>
 <path transform="scale(-1)" d="m-44.104-52.252h10.071v4.1728h-10.071z" fill="#a00" opacity=".81667"/>
 <path transform="scale(-1)" d="m-33.182-52.252h10.071v4.1728h-10.071z" fill="#a00" opacity=".81667"/>
 <path transform="scale(-1)" d="m-22.26-52.252h10.071v4.1728h-10.071z" fill="#a00" opacity=".81667"/>
 <path transform="scale(-1)" d="m-55.026-52.252h10.071v4.1728h-10.071z" fill="#a00" opacity=".81667"/>
 <path transform="scale(-1)" d="m-44.104-52.252h10.071v4.1728h-10.071z" fill="#a00" opacity=".81667"/>
 <path transform="scale(-1)" d="m-33.182-52.252h10.071v4.1728h-10.071z" fill="#a00" opacity=".81667"/>
 <path transform="scale(-1)" d="m-22.26-52.252h10.071v4.1728h-10.071z" fill="#a00" opacity=".81667"/>
 <path d="m7.5084 43.33h10.071v4.1728h-10.071z" fill="#a00" opacity=".81667"/>
 <path d="m18.43 43.33h10.071v4.1728h-10.071z" fill="#a00" opacity=".81667"/>
 <path d="m29.352 43.33h10.071v4.1728h-10.071z" fill="#a00" opacity=".81667"/>
 <path d="m40.274 43.33h10.071v4.1728h-10.071z" fill="#a00" opacity=".81667"/>
 <path d="m51.196 43.33h10.071v4.1728h-10.071z" fill="#a00" opacity=".81667"/>
 <path d="m7.5084 43.33h10.071v4.1728h-10.071z" fill="#a00" opacity=".81667"/>
 <path d="m18.43 43.33h10.071v4.1728h-10.071z" fill="#a00" opacity=".81667"/>
 <path d="m29.352 43.33h10.071v4.1728h-10.071z" fill="#a00" opacity=".81667"/>
 <path d="m40.274 43.33h10.071v4.1728h-10.071z" fill="#a00" opacity=".81667"/>
 <path d="m51.196 43.33h10.071v4.1728h-10.071z" fill="#a00" opacity=".81667"/>
 <path d="m2.8276 38.582h10.071v4.1728h-10.071z" fill="#a00" opacity=".81667"/>
 <path d="m13.75 38.582h10.071v4.1728h-10.071z" fill="#a00" opacity=".81667"/>
 <path d="m24.672 38.582h10.071v4.1728h-10.071z" fill="#a00" opacity=".81667"/>
 <path d="m35.594 38.582h10.071v4.1728h-10.071z" fill="#a00" opacity=".81667"/>
 <path d="m46.516 38.582h10.071v4.1728h-10.071z" fill="#a00" opacity=".81667"/>
 <path d="m2.8276 38.582h10.071v4.1728h-10.071z" fill="#a00" opacity=".81667"/>
 <path d="m13.75 38.582h10.071v4.1728h-10.071z" fill="#a00" opacity=".81667"/>
 <path d="m24.672 38.582h10.071v4.1728h-10.071z" fill="#a00" opacity=".81667"/>
 <path d="m35.594 38.582h10.071v4.1728h-10.071z" fill="url(#a)" opacity=".81667"/>
 <path d="m46.516 38.582h10.071v4.1728h-10.071z" fill="#a00" opacity=".81667"/>
 <path d="m13.304 19h10.071v4.1728h-10.071z" fill="#a00" opacity=".81667"/>
 <path d="m13.304 19h10.071v4.1728h-10.071z" fill="#a00" opacity=".81667"/>
 <path d="m19.546 23.748h10.071v4.1728h-10.071z" fill="#a00" opacity=".81667"/>
 <path d="m19.546 23.748h10.071v4.1728h-10.071z" fill="url(#a)" opacity=".81667"/>
 <path transform="scale(-1)" d="m-23.375-32.67h10.071v4.1728h-10.071z" fill="#a00" opacity=".81667"/>
 <path transform="scale(-1)" d="m-23.375-32.67h10.071v4.1728h-10.071z" fill="#a00" opacity=".81667"/>
 <path transform="scale(-1)" d="m-28.056-37.418h10.071v4.1728h-10.071z" fill="#a00" opacity=".81667"/>
 <path transform="scale(-1)" d="m-28.056-37.418h10.071v4.1728h-10.071z" fill="#a00" opacity=".81667"/>
 <path transform="scale(-1)" d="m-28.501-57h10.071v4.1728h-10.071z" fill="#a00" opacity=".81667"/>
 <path transform="scale(-1)" d="m-28.501-57h10.071v4.1728h-10.071z" fill="#a00" opacity=".81667"/>
 <path transform="scale(-1)" d="m-22.26-52.252h10.071v4.1728h-10.071z" fill="#a00" opacity=".81667"/>
 <path transform="scale(-1)" d="m-22.26-52.252h10.071v4.1728h-10.071z" fill="url(#c)" opacity=".81667"/>
 <path d="m18.43 43.33h10.071v4.1728h-10.071z" fill="#a00" opacity=".81667"/>
 <path d="m18.43 43.33h10.071v4.1728h-10.071z" fill="url(#a)" opacity=".81667"/>
 <path d="m13.75 38.582h10.071v4.1728h-10.071z" fill="#a00" opacity=".81667"/>
 <path d="m13.75 38.582h10.071v4.1728h-10.071z" fill="#a00" opacity=".81667"/>
</svg>
